<svg xmlns="http://www.w3.org/2000/svg" width="85" height="85" viewBox="1729 358.95 85 85"><g data-name="Group 58256"><g data-name="Check"><path d="M1770.946 412.794a2.366 2.366 0 0 1-1.846-.888l-11.83-14.81a2.366 2.366 0 0 1 3.644-2.958l9.76 12.149c4.2-6.542 15.651-22.11 33.834-30.58a2.366 2.366 0 0 1 2 4.282c-21.484 10.032-33.374 31.361-33.492 31.574a2.366 2.366 0 0 1-1.869 1.183l-.201.048Z" fill="#00ea91" fill-rule="evenodd" data-name="Path 6417"/><path d="M1771.798 431a29.445 29.445 0 0 1-17.795-52.904 29.445 29.445 0 0 1 34.357-.887 2.37 2.37 0 1 1-2.674 3.915 24.713 24.713 0 1 0 10.813 20.431 24.938 24.938 0 0 0-1.278-7.82 2.366 2.366 0 1 1 4.484-1.502A29.48 29.48 0 0 1 1771.798 431Z" fill="#00ea91" fill-rule="evenodd" data-name="Path 6416"/></g><path d="M1729 401.4a42.5 42.5 0 1 1 0 .1z" fill="rgba(0,234,145,0.2784313725490196 )" fill-rule="evenodd" data-name="Ellipse 127"/></g></svg>